<svg width="100%" height="100%" viewBox="0 0 128 128" version="1.1" xmlns="http://www.w3.org/2000/svg" xmlns:xlink="http://www.w3.org/1999/xlink" xml:space="preserve" xmlns:serif="http://www.serif.com/" style="fill-rule:evenodd;clip-rule:evenodd;stroke-linejoin:round;stroke-miterlimit:2;"><rect id="AoI" x="0" y="0" width="128" height="128" style="fill:none;"/><path d="M63.213,125.494c0.002,-0.548 0.447,-0.993 0.996,-0.995c0.329,-0.001 0.657,-0.005 0.984,-0.012c0.329,-0.006 0.656,-0.015 0.984,-0.026c0.549,-0.02 1.01,0.408 1.034,0.955c-1.065,0.055 -2.135,0.083 -3.211,0.083c-0.261,0 -0.522,-0.002 -0.787,-0.005Zm-7.971,-0.615c0.073,-0.543 0.571,-0.928 1.116,-0.859c0.325,0.041 0.651,0.08 0.977,0.115c0.326,0.036 0.652,0.069 0.979,0.1c0.547,0.051 0.95,0.534 0.903,1.08c-1.338,-0.103 -2.664,-0.249 -3.975,-0.436Zm15.955,0.202c-0.069,-0.543 0.315,-1.042 0.86,-1.115c0.325,-0.043 0.65,-0.089 0.974,-0.138c0.324,-0.048 0.648,-0.099 0.971,-0.153c0.542,-0.091 1.055,0.274 1.149,0.813c-1.304,0.24 -2.622,0.438 -3.954,0.593Zm-23.778,-1.847c0.143,-0.529 0.687,-0.845 1.218,-0.706c0.317,0.083 0.635,0.164 0.954,0.242c0.318,0.078 0.637,0.153 0.957,0.226c0.536,0.121 0.873,0.653 0.755,1.188c-1.309,-0.275 -2.603,-0.592 -3.884,-0.95Zm31.64,0.404c-0.138,-0.53 0.178,-1.074 0.708,-1.217c0.317,-0.086 0.632,-0.174 0.947,-0.264c0.316,-0.091 0.63,-0.184 0.943,-0.279c0.526,-0.161 1.082,0.133 1.246,0.656c-1.263,0.409 -2.545,0.777 -3.844,1.104Zm-39.181,-3.058c0.211,-0.505 0.792,-0.747 1.3,-0.54l0.914,0.364c0.305,0.119 0.612,0.236 0.919,0.349c0.515,0.191 0.78,0.762 0.594,1.278c-1.262,-0.444 -2.504,-0.928 -3.727,-1.451Zm46.788,0.6c-0.206,-0.507 0.035,-1.088 0.542,-1.299c0.303,-0.126 0.605,-0.255 0.905,-0.386c0.301,-0.131 0.601,-0.264 0.899,-0.4c0.5,-0.227 1.09,-0.009 1.321,0.489c-1.201,0.57 -2.424,1.103 -3.667,1.596Zm-53.919,-4.214c0.275,-0.474 0.883,-0.638 1.36,-0.366c0.285,0.162 0.571,0.322 0.859,0.48c0.287,0.157 0.576,0.313 0.866,0.466c0.485,0.256 0.673,0.857 0.421,1.343c-1.191,-0.603 -2.359,-1.245 -3.506,-1.923Zm61.141,0.784c-0.271,-0.476 -0.108,-1.084 0.368,-1.359c0.284,-0.164 0.566,-0.331 0.847,-0.5l0.42,-0.255c0.14,-0.086 0.28,-0.172 0.419,-0.258c0.466,-0.291 1.079,-0.151 1.373,0.312c-1.118,0.722 -2.261,1.41 -3.427,2.06Zm-67.742,-5.293c0.334,-0.434 0.958,-0.519 1.396,-0.187c0.261,0.198 0.524,0.393 0.789,0.587c0.264,0.194 0.531,0.385 0.798,0.575c0.449,0.317 0.557,0.936 0.244,1.386c-1.103,-0.753 -2.18,-1.541 -3.227,-2.361Zm74.456,0.955c-0.33,-0.438 -0.246,-1.061 0.189,-1.396c0.26,-0.2 0.519,-0.401 0.776,-0.605c0.257,-0.204 0.512,-0.41 0.765,-0.618c0.425,-0.348 1.051,-0.289 1.402,0.133c-1.016,0.861 -2.061,1.691 -3.132,2.486Zm-80.421,-6.278c0.388,-0.388 1.017,-0.391 1.409,-0.006c0.233,0.23 0.469,0.458 0.707,0.684c0.237,0.226 0.476,0.451 0.718,0.673c0.403,0.372 0.431,1.001 0.062,1.407c-0.994,-0.888 -1.96,-1.808 -2.896,-2.758Zm86.519,1.108c-0.384,-0.391 -0.381,-1.02 0.008,-1.408c0.232,-0.232 0.462,-0.465 0.691,-0.701c0.228,-0.235 0.455,-0.472 0.679,-0.711c0.377,-0.4 1.006,-0.421 1.408,-0.049c-0.898,0.987 -1.827,1.944 -2.786,2.869Zm-91.748,-7.155c0.434,-0.335 1.059,-0.257 1.397,0.176l0.613,0.769c0.207,0.255 0.415,0.508 0.626,0.76c0.352,0.421 0.298,1.048 -0.119,1.403c-0.872,-1.008 -1.712,-2.045 -2.517,-3.108Zm97.129,1.243c-0.431,-0.339 -0.509,-0.963 -0.174,-1.398c0.201,-0.259 0.399,-0.52 0.596,-0.783c0.196,-0.263 0.39,-0.527 0.582,-0.793c0.321,-0.445 0.942,-0.548 1.389,-0.23c-0.764,1.095 -1.562,2.163 -2.393,3.204Zm-101.533,-7.914c0.473,-0.276 1.082,-0.118 1.362,0.354c0.168,0.283 0.337,0.563 0.509,0.843c0.171,0.279 0.345,0.557 0.521,0.833c0.296,0.464 0.161,1.078 -0.299,1.377c-0.733,-1.112 -1.432,-2.248 -2.093,-3.407Zm106.107,1.357c-0.472,-0.28 -0.63,-0.889 -0.353,-1.363c0.165,-0.283 0.328,-0.568 0.488,-0.854c0.161,-0.286 0.319,-0.573 0.475,-0.862c0.261,-0.483 0.863,-0.665 1.348,-0.408c-0.616,1.186 -1.269,2.349 -1.958,3.487Zm-109.609,-8.544c0.506,-0.212 1.089,0.024 1.305,0.529c0.129,0.302 0.261,0.602 0.395,0.901c0.134,0.299 0.27,0.598 0.409,0.895c0.232,0.497 0.019,1.089 -0.476,1.325c-0.582,-1.195 -1.127,-2.413 -1.633,-3.65Zm113.293,1.449c-0.503,-0.216 -0.74,-0.799 -0.527,-1.305c0.127,-0.302 0.251,-0.606 0.373,-0.91c0.122,-0.304 0.242,-0.61 0.359,-0.916c0.195,-0.513 0.769,-0.772 1.282,-0.581c-0.456,1.258 -0.953,2.496 -1.487,3.712Zm-115.826,-9.031c0.529,-0.144 1.076,0.166 1.224,0.695c0.089,0.316 0.18,0.631 0.274,0.945c0.093,0.314 0.19,0.628 0.288,0.94c0.166,0.523 -0.123,1.083 -0.644,1.252c-0.421,-1.26 -0.802,-2.538 -1.142,-3.832Zm118.555,1.517c-0.528,-0.148 -0.838,-0.696 -0.694,-1.225c0.086,-0.316 0.17,-0.633 0.251,-0.951c0.081,-0.318 0.16,-0.636 0.236,-0.955c0.127,-0.535 0.661,-0.866 1.196,-0.744c-0.289,1.307 -0.618,2.598 -0.989,3.875Zm-120.076,-9.366c0.543,-0.073 1.045,0.306 1.123,0.849c0.047,0.325 0.096,0.65 0.148,0.973c0.052,0.324 0.106,0.647 0.163,0.97c0.096,0.541 -0.263,1.057 -0.802,1.157c-0.252,-1.303 -0.464,-2.619 -0.632,-3.949Zm121.798,1.56c-0.542,-0.078 -0.922,-0.581 -0.847,-1.125c0.044,-0.324 0.085,-0.65 0.124,-0.976c0.039,-0.325 0.076,-0.651 0.11,-0.977c0.056,-0.547 0.543,-0.945 1.089,-0.893c-0.117,1.336 -0.275,2.659 -0.476,3.971Zm-122.288,-9.539c0.548,-0.003 0.997,0.438 1.004,0.987l0.021,0.984c0.01,0.328 0.022,0.656 0.036,0.983c0.025,0.548 -0.398,1.014 -0.945,1.043c-0.078,-1.259 -0.117,-2.533 -0.117,-3.816l0.001,-0.181Zm122.942,-2.424c0.037,0.865 0.055,1.733 0.055,2.605c0,0.465 -0.005,0.929 -0.016,1.393c-0.548,-0.007 -0.989,-0.456 -0.985,-1.006l-0.002,-0.984c-0.003,-0.328 -0.009,-0.656 -0.017,-0.983c-0.014,-0.549 0.418,-1.007 0.965,-1.025Zm-122.406,-5.552c0.544,0.067 0.933,0.562 0.87,1.107l-0.106,0.978c-0.032,0.326 -0.062,0.653 -0.089,0.98c-0.046,0.547 -0.525,0.955 -1.072,0.914c0.09,-1.338 0.223,-2.664 0.397,-3.979Zm121.557,-2.397c0.226,1.306 0.412,2.627 0.554,3.96c-0.545,0.063 -1.04,-0.326 -1.107,-0.871c-0.04,-0.326 -0.083,-0.651 -0.128,-0.975c-0.046,-0.325 -0.094,-0.65 -0.144,-0.973c-0.085,-0.543 0.284,-1.052 0.825,-1.141Zm-119.989,-5.443c0.53,0.138 0.852,0.679 0.718,1.212c-0.08,0.318 -0.158,0.636 -0.233,0.956c-0.074,0.319 -0.146,0.638 -0.216,0.959c-0.116,0.537 -0.645,0.879 -1.181,0.767c0.263,-1.315 0.567,-2.614 0.912,-3.894Zm118.112,-2.328c0.396,1.268 0.751,2.553 1.066,3.854c-0.532,0.133 -1.073,-0.188 -1.211,-0.719c-0.082,-0.318 -0.167,-0.635 -0.254,-0.95c-0.088,-0.317 -0.178,-0.632 -0.27,-0.946c-0.155,-0.527 0.144,-1.08 0.669,-1.239Zm-115.534,-5.239c0.508,0.206 0.756,0.785 0.553,1.295c-0.12,0.305 -0.239,0.611 -0.355,0.918c-0.116,0.306 -0.229,0.614 -0.34,0.923c-0.185,0.516 -0.754,0.786 -1.271,0.605c0.432,-1.267 0.904,-2.516 1.413,-3.741Zm112.657,-2.22c0.559,1.207 1.08,2.435 1.56,3.682c-0.509,0.202 -1.088,-0.046 -1.294,-0.555c-0.123,-0.304 -0.248,-0.607 -0.376,-0.908c-0.128,-0.303 -0.259,-0.603 -0.391,-0.903c-0.223,-0.502 0.002,-1.09 0.501,-1.316Zm-109.113,-4.946c0.477,0.271 0.647,0.877 0.38,1.356c-0.16,0.287 -0.317,0.575 -0.472,0.864c-0.155,0.289 -0.307,0.579 -0.457,0.87c-0.252,0.489 -0.85,0.682 -1.34,0.435c0.593,-1.198 1.224,-2.375 1.889,-3.525Zm105.289,-2.074c0.711,1.125 1.388,2.275 2.026,3.447c-0.479,0.267 -1.085,0.097 -1.355,-0.381c-0.162,-0.286 -0.326,-0.57 -0.492,-0.852c-0.166,-0.283 -0.335,-0.564 -0.505,-0.844c-0.286,-0.469 -0.14,-1.081 0.326,-1.37Zm-100.845,-4.571c0.437,0.33 0.528,0.953 0.201,1.394c-0.195,0.263 -0.389,0.528 -0.58,0.795c-0.191,0.266 -0.38,0.534 -0.566,0.804c-0.313,0.451 -0.932,0.566 -1.385,0.257c0.742,-1.108 1.518,-2.192 2.33,-3.25Zm96.143,-1.895c0.852,1.025 1.671,2.078 2.456,3.157c-0.441,0.326 -1.064,0.236 -1.394,-0.203c-0.197,-0.262 -0.396,-0.523 -0.598,-0.782l-0.303,-0.387c-0.102,-0.128 -0.204,-0.257 -0.307,-0.384c-0.344,-0.428 -0.278,-1.054 0.146,-1.401Zm-90.879,-4.121c0.392,0.383 0.401,1.012 0.02,1.408c-0.228,0.236 -0.453,0.474 -0.677,0.713c-0.224,0.24 -0.446,0.481 -0.666,0.725c-0.368,0.407 -0.997,0.441 -1.406,0.076c0.878,-1.004 1.789,-1.979 2.729,-2.922Zm85.383,-1.685c0.978,0.908 1.926,1.847 2.842,2.814c-0.395,0.38 -1.024,0.371 -1.408,-0.021c-0.23,-0.235 -0.461,-0.467 -0.694,-0.698c-0.233,-0.231 -0.468,-0.46 -0.704,-0.687c-0.397,-0.38 -0.412,-1.009 -0.036,-1.408Zm-79.387,-3.604c0.339,0.431 0.267,1.056 -0.162,1.399c-0.256,0.205 -0.511,0.412 -0.764,0.621c-0.252,0.209 -0.504,0.42 -0.753,0.632c-0.418,0.357 -1.045,0.309 -1.404,-0.105c1,-0.881 2.028,-1.731 3.083,-2.547Zm73.189,-1.445c1.087,0.774 2.147,1.582 3.181,2.424c-0.343,0.428 -0.968,0.5 -1.399,0.16c-0.258,-0.203 -0.517,-0.403 -0.778,-0.602c-0.261,-0.199 -0.523,-0.396 -0.787,-0.59c-0.442,-0.326 -0.539,-0.948 -0.217,-1.392Zm-66.561,-3.025c0.28,0.471 0.128,1.082 -0.342,1.367c-0.28,0.17 -0.559,0.342 -0.837,0.516c-0.278,0.175 -0.554,0.351 -0.829,0.53c-0.46,0.3 -1.076,0.172 -1.379,-0.285c1.105,-0.745 2.234,-1.455 3.387,-2.128Zm59.763,-1.18c1.179,0.627 2.336,1.292 3.467,1.992c-0.285,0.468 -0.895,0.621 -1.367,0.339c-0.281,-0.168 -0.564,-0.333 -0.849,-0.497c-0.284,-0.163 -0.569,-0.324 -0.856,-0.483c-0.481,-0.266 -0.657,-0.87 -0.395,-1.351Zm-52.612,-2.392c0.217,0.504 -0.013,1.089 -0.516,1.31c-0.3,0.132 -0.599,0.267 -0.897,0.404c-0.298,0.137 -0.595,0.276 -0.89,0.418c-0.495,0.237 -1.09,0.03 -1.33,-0.463c1.19,-0.594 2.402,-1.151 3.633,-1.669Zm45.324,-0.895c1.253,0.469 2.487,0.978 3.697,1.524c-0.221,0.502 -0.806,0.732 -1.311,0.514c-0.3,-0.129 -0.603,-0.257 -0.906,-0.382c-0.303,-0.125 -0.607,-0.247 -0.912,-0.367c-0.511,-0.201 -0.765,-0.777 -0.568,-1.289Zm-37.767,-1.713c0.149,0.527 -0.156,1.078 -0.683,1.231c-0.315,0.092 -0.629,0.186 -0.942,0.283c-0.313,0.097 -0.626,0.196 -0.937,0.298c-0.522,0.17 -1.084,-0.113 -1.259,-0.632c1.256,-0.434 2.53,-0.827 3.821,-1.18Zm30.113,-0.593c1.303,0.301 2.591,0.643 3.864,1.027c-0.153,0.526 -0.704,0.831 -1.232,0.682c-0.315,-0.09 -0.631,-0.176 -0.948,-0.261c-0.317,-0.084 -0.634,-0.166 -0.953,-0.245c-0.533,-0.132 -0.859,-0.67 -0.731,-1.203Zm-22.28,-1.006c0.079,0.542 -0.295,1.049 -0.838,1.132c-0.324,0.05 -0.648,0.102 -0.971,0.157c-0.324,0.055 -0.646,0.113 -0.968,0.173c-0.54,0.101 -1.06,-0.253 -1.165,-0.791c1.3,-0.265 2.614,-0.489 3.942,-0.671Zm14.39,-0.281c1.335,0.129 2.659,0.301 3.965,0.515c-0.083,0.541 -0.589,0.915 -1.132,0.836c-0.324,-0.048 -0.649,-0.092 -0.975,-0.135c-0.325,-0.042 -0.65,-0.081 -0.976,-0.118c-0.546,-0.062 -0.94,-0.553 -0.882,-1.098Zm-10.412,-0.132c1.46,-0.104 2.934,-0.157 4.421,-0.157c0.669,-0 1.335,0.011 2,0.032c-0.013,0.548 -0.467,0.985 -1.016,0.976c-0.327,-0.005 -0.655,-0.008 -0.984,-0.008c-0.275,-0 -0.524,-0.111 -0.704,-0.291c-0.177,0.184 -0.423,0.301 -0.698,0.307c-0.328,0.007 -0.656,0.017 -0.983,0.03c-0.329,0.013 -0.656,0.028 -0.983,0.046c-0.548,0.03 -1.019,-0.388 -1.053,-0.935Z" style="fill:#fff;"/></svg>