<svg width="100%" height="100%" viewBox="0 0 64 64" version="1.1" xmlns="http://www.w3.org/2000/svg" xmlns:xlink="http://www.w3.org/1999/xlink" xml:space="preserve" xmlns:serif="http://www.serif.com/" style="fill-rule:evenodd;clip-rule:evenodd;stroke-linecap:round;stroke-linejoin:round;stroke-miterlimit:1.5;"><rect id="FriendlyAir" x="0" y="0" width="64" height="64" style="fill:none;"/><path d="M10.049,56.932c0,-27.521 9.836,-49.864 21.951,-49.864c12.115,-0 21.951,22.343 21.951,49.864l-43.902,0Z" style="fill:#fff;"/><path d="M10.049,56.932c0,0 0.168,-49.864 21.951,-49.864c21.783,-0 21.951,49.864 21.951,49.864" style="fill:none;stroke:#000;stroke-width:1px;"/><rect id="Heading" x="30.5" y="0" width="3" height="32" style="fill:#fff;"/><path d="M33.5,0l-3,0l0,32l3,0l0,-32Zm-1,1l0,30c0,0 -1,0 -1,0c0,0 0,-30 0,-30l1,-0Z"/><circle id="Cover" cx="32" cy="35.638" r="13.834" style="fill:#fff;"/><text x="27.113px" y="41.368px" style="font-family:'ArialMT', 'Arial', sans-serif;font-size:16px;">F</text></svg>