<svg width="100%" height="100%" viewBox="0 0 65 64" version="1.1" xmlns="http://www.w3.org/2000/svg" xmlns:xlink="http://www.w3.org/1999/xlink" xml:space="preserve" xmlns:serif="http://www.serif.com/" style="fill-rule:evenodd;clip-rule:evenodd;stroke-linecap:round;stroke-linejoin:round;stroke-miterlimit:1.5;"><rect id="HostileAir" x="0.581" y="0" width="64" height="64" style="fill:none;"/><path d="M53.768,26.633l-20.917,-19.565l-21.211,19.565l0,30.299l42.128,0l-0,-30.299Z" style="fill:#fff;"/><path d="M11.64,56.932l0,-30.299l21.064,-19.565l21.064,18.576l-0,31.288" style="fill:none;stroke:#000;stroke-width:1px;"/><rect id="Heading" x="31.081" y="0" width="3" height="32" style="fill:#fff;"/><path d="M34.081,0l-3,0l-0,32l3,0l-0,-32Zm-1,1l-0,30c-0,0 -1,0 -1,0c-0,0 -0,-30 -0,-30l1,-0Z"/><circle id="Cover" cx="32.704" cy="34.233" r="13.834" style="fill:#fff;"/><text x="27.817px" y="39.963px" style="font-family:'ArialMT', 'Arial', sans-serif;font-size:16px;">F</text></svg>